<?xml version="1.0" encoding="utf-8"?>
<!-- Generator: Adobe Illustrator 16.0.0, SVG Export Plug-In . SVG Version: 6.00 Build 0)  -->
<!DOCTYPE svg PUBLIC "-//W3C//DTD SVG 1.1//EN" "http://www.w3.org/Graphics/SVG/1.1/DTD/svg11.dtd">
<svg version="1.1" id="Layer_1" xmlns="http://www.w3.org/2000/svg" xmlns:xlink="http://www.w3.org/1999/xlink" x="0px" y="0px"
	 width="362.147px" height="184.696px" viewBox="0 0 362.147 184.696" enable-background="new 0 0 362.147 184.696"
	 xml:space="preserve">
<g>
	<defs>
		<rect id="SVGID_1_" y="-0.063" width="362.147" height="184.759"/>
	</defs>
	<clipPath id="SVGID_2_">
		<use xlink:href="#SVGID_1_"  overflow="visible"/>
	</clipPath>
	<path clip-path="url(#SVGID_2_)" fill="#EE363F" d="M22.416,16.467c-3.961,0-4.103,4.648-4.103,4.648H0.038
		c0,0-0.033-13.463-0.033-15.878c0-2.925,2.241-5.237,7.777-5.243c15.979-0.018,47.933-0.051,63.912-0.058
		c8.742-0.005,14.829,2.145,14.829,10.614v19.612c-0.06,10.475-5.699,9.942-5.699,9.942s5.687-0.327,5.699,7.062l0.034,21.63
		c0,6.946-5.602,9.672-14.084,9.672H8.737c-5.628,0-8.677-0.543-8.677-5.93c0-3.713-0.07-12.861-0.059-15.006l18.242-0.015
		c0,1.309,0.083,4.612,3.588,4.612c0.527,0,38.288-0.016,39.056-0.016c5.032,0,7.381-0.136,7.381-3.771v-6.1
		c0-4.365-3.366-4.721-7.66-4.721H36.681c0,0-0.001-2.082-0.001-7.43c0-5.351,0.001-8.912,0.001-8.912h23.927
		c4.294,0,7.789-0.031,7.789-3.927v-5.646c0-4.219-3.549-5.144-7.788-5.141C57.053,16.472,22.416,16.467,22.416,16.467"/>
	<path clip-path="url(#SVGID_2_)" fill="#EE363F" d="M109.957,51.146v7.9c0,3.591,1.198,3.149,4.649,3.149h40.116
		c3.196,0,5.224,0.169,5.224-2.924c0-2.096,0.039-5.792,0.021-8.358c-0.021-3.203-0.713-3.256-5.149-3.249
		c-6.456,0.012-33.907,0-39.972,0C111.49,47.663,109.957,47.678,109.957,51.146 M118.883,31.152
		c6.391,0.011,39.815-0.009,45.845-0.009c11.12,0,13.511,1.511,13.511,8.312v29.683c0,6.949-3.201,9.383-10.095,9.393
		c-16.077,0.023-64.32,0-64.32,0c-7.211,0-12.008-2.919-12.008-9.216V10.97C91.816,1.104,95.841,0,104.343,0
		c16.68,0,52.797-0.029,66.722,0c3.47,0.008,7.198,1.619,7.18,6.056c-0.016,4.048-0.04,14.92-0.04,14.92h-17.913
		c0,0,0.389-4.576-4.089-4.576h-38.311c-5.305,0-7.935,0.584-7.935,5.16c0,7.887-0.001,6.411-0.001,12.451
		C109.957,34.011,110.2,31.139,118.883,31.152"/>
	<path clip-path="url(#SVGID_2_)" fill="#FFFFFF" d="M190.688,25.417c0-1.822,0.844-3.308,3.098-3.308
		c1.924,0,3.566,1.678,3.566,3.402c0,1.39-1.172,2.874-3.332,2.874C192.048,28.386,190.688,27.236,190.688,25.417 M190.688,9.078
		c0-2.684,0.516-5.319,3.332-5.319c2.77,0,3.332,2.636,3.332,5.319v11.451c-0.938-1.344-2.254-1.773-3.521-1.773
		c-1.315,0-2.394,0.336-3.146,1.342V9.078H190.688z M184.305,19.475c0,5.844,2.815,11.979,9.715,11.979
		c2.535,0,4.929-0.815,5.727-1.917c1.08,1.772,2.816,2.636,4.271,2.636c2.815,0,4.834-1.82,4.834-5.175
		c0-1.821-0.469-3.642-1.643-3.93c-0.048,1.821-0.564,3.307-1.641,3.307c-1.129,0-1.785-0.91-2.396-1.868
		c0.188-0.719,0.563-2.732,0.563-5.031v-8.001c0-4.981-3.848-10.828-9.715-10.828s-9.717,5.989-9.717,10.828V19.475z"/>
	<path clip-path="url(#SVGID_2_)" fill="#FFFFFF" d="M210.543,3.712l1.502,0.24c0.939,0.19,1.503,1.581,1.503,3.833V19.14
		c0,8.385,1.924,12.314,9.339,12.314c4.834,0,7.463-2.443,7.463-11.451V7.784c0-1.82,0.282-3.642,1.549-3.833l1.502-0.24V0.979
		h-9.059v2.731l1.456,0.24c1.313,0.191,1.595,2.013,1.595,3.833v13.031c0,6.037-1.736,7.57-4.178,7.57
		c-3.801,0-4.364-2.874-4.364-10.397V7.784c0-2.253,0.563-3.642,1.503-3.833l1.502-0.24V0.979h-11.312L210.543,3.712L210.543,3.712z
		"/>
	<path clip-path="url(#SVGID_2_)" fill="#FFFFFF" d="M245.229,17.127l1.97-7.33h0.188l1.548,7.33H245.229z M249.828,21.392
		l0.33,1.438c0.75,3.641,0.187,4.886-1.033,5.27l-1.221,0.336v2.731h11.547v-2.731l-1.315-0.527c-0.798-0.287-1.597-1.677-2.44-5.03
		L250.158,0.98h-4.365l-5.398,20.365c-1.314,4.935-2.111,6.371-3.286,6.755l-1.032,0.336v2.731h9.949v-2.731l-1.219-0.336
		c-1.033-0.384-1.736-2.445-1.033-5.27l0.376-1.438L249.828,21.392L249.828,21.392z"/>
	<path clip-path="url(#SVGID_2_)" fill="#FFFFFF" d="M267.431,24.361c0,2.204-0.375,3.594-1.502,3.834l-1.503,0.239v2.73h11.359
		v-2.73l-1.502-0.239c-1.175-0.24-1.55-1.63-1.55-3.834V7.783c0-2.251,0.563-3.641,1.503-3.832l1.502-0.24V0.979h-11.312v2.731
		l1.503,0.24c0.938,0.191,1.502,1.581,1.502,3.832V24.361z"/>
	<path clip-path="url(#SVGID_2_)" fill="#FFFFFF" d="M302.679,4.381c2.018,0,3.661,1.918,3.661,11.549
		c0,4.694-1.408,11.785-4.836,11.785h-2.157c-0.986,0-1.455-1.149-1.455-3.354V8.023c0-2.204,0.095-3.644,1.596-3.644L302.679,4.381
		L302.679,4.381z M292.588,24.361c0,2.204-0.375,3.594-1.502,3.834l-1.502,0.239v2.73h11.593c6.617,0,11.499-6.563,11.499-14.757
		c0-11.164-4.083-15.428-9.855-15.428h-13.236v2.73l1.502,0.24c0.938,0.192,1.502,1.581,1.502,3.833V24.361L292.588,24.361z"/>
	<path clip-path="url(#SVGID_2_)" fill="#FFFFFF" d="M330.887,16.936v-3.401h-4.646V7.305c0-2.203,0.703-3.354,3.097-3.354
		c2.207,0,4.085,1.868,4.085,5.462v2.012h2.956V0.98h-18.446v2.73l1.502,0.24c0.939,0.192,1.503,1.581,1.503,3.833v16.578
		c0,2.204-0.375,3.642-1.503,3.834l-1.502,0.239v2.73h18.446V20.338h-2.957v2.35c0,2.969-0.798,5.414-4.084,5.414
		c-2.393,0-3.097-1.391-3.097-3.308v-7.858H330.887z"/>
	<path clip-path="url(#SVGID_2_)" fill="#FFFFFF" d="M348.02,7.545c0-1.869,1.221-3.928,3.849-3.928c2.019,0,4.318,1.58,5.163,2.682
		c0.704,0.909,1.267,2.252,1.595,3.688h2.3V0.98h-2.3c-0.328,0.336-0.703,0.719-1.267,0.719c-0.703,0-1.408-0.24-2.158-0.478
		c-0.893-0.288-2.44-0.576-3.895-0.576c-4.648,0-8.45,3.163-8.45,8.242c0,4.79,1.689,7.474,5.914,9.295l3.661,1.532
		c1.549,0.67,4.038,1.821,4.038,4.553c0,1.916-1.456,3.642-3.428,3.642c-3.191,0-5.539-1.581-6.711-3.497
		c-0.751-1.198-1.22-2.252-1.456-3.546h-2.347v10.301h2.347c0.423-0.861,0.939-1.819,1.691-1.819c0.751,0,1.596,0.43,2.675,0.957
		c1.032,0.526,2.628,1.149,4.412,1.149c4.786,0,8.449-3.641,8.449-9.055c0-5.75-2.724-8.336-8.871-10.206
		C349.663,11.139,347.974,10.275,348.02,7.545"/>
	<path clip-path="url(#SVGID_2_)" fill="#FFFFFF" d="M196.41,59.756l1.977-7.01h0.188l1.555,7.01H196.41z M206.906,66.16
		l-5.554-21.981h-4.378l-5.412,20.438c-1.319,4.964-2.146,6.388-3.323,6.772l-1.062,0.314v2.85h10.125v-2.85l-1.271-0.338
		c-1.036-0.386-1.765-2.164-1.058-5.007l0.353-1.152h5.696l0.329,1.152c0.754,3.662,0.071,4.769-1.152,5.153l-1.34,0.191v2.85
		h11.683v-2.85l-1.254-0.507C208.488,70.908,207.754,69.534,206.906,66.16"/>
	<path clip-path="url(#SVGID_2_)" fill="#FFFFFF" d="M230.641,56.612h-5.153v-5.472c0-2.312,0.823-3.097,1.812-3.097h3.342
		c1.553,0,3.199,1.343,3.199,4.38C233.842,55.026,232.193,56.612,230.641,56.612 M240.285,66.326c0,1.059-0.045,2.65-0.75,2.65
		c-0.755,0-1.091-1.302-1.326-4.05c-0.235-2.649-1.039-4.482-2.598-5.688v-0.096c1.559-1.014,3.656-3.135,3.656-6.99
		c0-4.965-2.602-8.003-8.627-8.003H216.92v2.652l1.558,0.241c0.942,0.193,1.558,1.591,1.558,3.857v16.677
		c0,2.217-0.429,3.616-1.558,3.856l-1.558,0.24v2.851h11.683v-2.851l-0.993-0.144c-1.695-0.193-2.122-1.737-2.122-3.953v-7.072
		h4.634c2.166,0,2.92,3.392,3.201,6.188c0.66,5.88,2.075,7.889,5.465,7.889c2.775,0,4.613-1.557,4.613-8.258V64.4h-3.115V66.326z"/>
</g>
<polygon fill="#FFFFFF" points="260.913,40.387 265.196,41.446 265.903,39.663 260.959,36.097 255.924,39.904 256.676,41.735 "/>
<g>
	<defs>
		<rect id="SVGID_3_" y="-0.063" width="362.147" height="184.759"/>
	</defs>
	<clipPath id="SVGID_4_">
		<use xlink:href="#SVGID_3_"  overflow="visible"/>
	</clipPath>
	<path clip-path="url(#SVGID_4_)" fill="#FFFFFF" d="M291.578,58.977l-2.918-14.798h-10.404v2.653l1.557,0.241
		c0.942,0.192,1.559,1.591,1.559,3.856v16.677c0,2.218-0.428,3.616-1.559,3.856l-1.557,0.241v2.85h8.566v-2.85l-0.91-0.241
		c-1.176-0.29-1.426-1.639-1.426-3.856v-15.66l4.269,22.607h3.062l4.353-22.538v15.591c0,2.218-0.251,3.566-1.427,3.856
		l-0.909,0.241v2.85h10.903v-2.85l-1.535-0.241c-1.178-0.242-1.58-1.639-1.58-3.856V50.93c0-2.266,0.615-3.664,1.558-3.856
		l1.558-0.241v-2.653h-10.379L291.578,58.977z"/>
	<path clip-path="url(#SVGID_4_)" fill="#FFFFFF" d="M312.675,46.831l1.559,0.241c0.94,0.193,1.557,1.591,1.557,3.857v16.677
		c0,2.217-0.429,3.663-1.557,3.856l-1.559,0.24v2.851h18.693V63.649h-3.116v2.27c0,2.989-0.704,5.447-4,5.447
		c-2.4,0-3.01-1.398-3.01-3.326v-8.284h4.674v-3.115h-4.674v-6.194c0-2.217,0.609-3.374,3.01-3.374c2.212,0,4,1.88,4,5.496v1.735
		h3.116V44.179h-18.693V46.831z"/>
	<path clip-path="url(#SVGID_4_)" fill="#FFFFFF" d="M353.25,55.474c-3.577-1.061-5.272-1.93-5.225-4.676
		c0-1.88,1.224-3.953,3.859-3.953c2.024,0,4.331,1.391,5.177,2.5c0.706,0.916,1.272,2.732,1.602,3.511h1.779v-8.566h-1.779
		c-0.329,0.777-0.706,0.677-1.271,0.677c-0.706,0-1.411-0.265-2.165-0.507c-0.894-0.289-2.448-0.59-3.906-0.59
		c-4.659,0-8.475,3.175-8.475,8.286c0,4.818,1.695,7.515,5.933,9.348l3.671,1.541c1.553,0.675,4.048,1.831,4.048,4.578
		c0,1.929-1.459,3.663-3.437,3.663c-3.2,0-5.553-1.42-6.73-3.35c-0.754-1.205-1.224-1.839-1.459-3.396h-2.342v10.125h2.343
		c0.424-0.779,0.942-1.883,1.695-1.883s1.6,0.407,2.682,0.938c1.035,0.53,2.636,1.145,4.425,1.145c4.801,0,8.473-3.67,8.473-9.117
		C362.146,59.963,359.416,57.353,353.25,55.474"/>
	<path clip-path="url(#SVGID_4_)" fill="#EE363F" d="M264.24,69.323c0,0.731-0.756,1.169-3.326,1.171
		c-2.565,0.001-2.904-0.418-2.904-1.351V56.068c0-0.786,2.336-2.406,2.336-2.406v-4.515h-0.779v-0.779h0.723h1.898h0.496v0.779
		h-0.779v4.523c0,0,2.336,1.592,2.336,2.286V69.323z M260.96,42.916c-6.315,0-10.375,5.527-10.375,11.564l-0.009,9.771
		c-0.049,6.958,4.046,11.564,10.363,11.564c6.367,0,10.31-5.476,10.31-11.921V54.48C271.25,48.084,267.277,42.916,260.96,42.916"/>
	<path clip-path="url(#SVGID_4_)" fill="#EE363F" d="M48.031,116.358c8.526,0,15.439-6.896,15.439-15.404
		c0-8.508-6.913-15.405-15.439-15.405c-8.526,0-15.438,6.896-15.438,15.405C32.593,109.461,39.505,116.358,48.031,116.358"/>
	<path clip-path="url(#SVGID_4_)" fill="#EE363F" d="M86.842,116.358c8.526,0,15.439-6.896,15.439-15.404
		c0-8.508-6.913-15.405-15.439-15.405c-8.526,0-15.438,6.896-15.438,15.405C71.404,109.461,78.315,116.358,86.842,116.358"/>
	<path clip-path="url(#SVGID_4_)" fill="#EE363F" d="M126.081,116.358c8.526,0,15.439-6.896,15.439-15.404
		c0-8.508-6.913-15.405-15.439-15.405s-15.438,6.896-15.438,15.405C110.643,109.461,117.555,116.358,126.081,116.358"/>
	<path clip-path="url(#SVGID_4_)" fill="#EE363F" d="M67.329,148.381c8.526,0,15.439-6.896,15.439-15.404
		c0-8.506-6.913-15.404-15.439-15.404s-15.439,6.898-15.439,15.404C51.89,141.485,58.803,148.381,67.329,148.381"/>
	<path clip-path="url(#SVGID_4_)" fill="#EE363F" d="M106.783,148.381c8.526,0,15.439-6.896,15.439-15.404
		c0-8.506-6.913-15.404-15.439-15.404c-8.526,0-15.438,6.898-15.438,15.404C91.345,141.485,98.257,148.381,106.783,148.381"/>
	<path clip-path="url(#SVGID_4_)" fill="#EE363F" d="M86.842,184.696c8.526,0,15.439-6.898,15.439-15.406
		c0-8.506-6.913-15.402-15.439-15.402c-8.526,0-15.438,6.896-15.438,15.402C71.404,177.797,78.315,184.696,86.842,184.696"/>
</g>
</svg>
